<svg xmlns="http://www.w3.org/2000/svg" width="960" height="600" viewBox="0 0 960 600" role="img" aria-label="SDK tooling thumbnail">
  <rect width="960" height="600" fill="#111312"/>
  <rect x="52" y="52" width="856" height="496" rx="18" fill="#181c1a" stroke="#33524d"/>
  <rect x="88" y="88" width="322" height="424" rx="12" fill="#101412" stroke="#2f4642"/>
  <rect x="450" y="88" width="422" height="138" rx="12" fill="#17211f" stroke="#4e8b82"/>
  <rect x="450" y="254" width="422" height="258" rx="12" fill="#121817" stroke="#2f4642"/>
  <g fill="#67c7bd">
    <rect x="116" y="130" width="210" height="18" rx="5"/>
    <rect x="116" y="174" width="156" height="18" rx="5"/>
    <rect x="116" y="218" width="236" height="18" rx="5"/>
    <rect x="116" y="262" width="176" height="18" rx="5"/>
  </g>
  <g fill="#2c3a37">
    <rect x="480" y="124" width="132" height="66" rx="8"/>
    <rect x="636" y="124" width="132" height="66" rx="8"/>
    <rect x="480" y="294" width="360" height="18" rx="5"/>
    <rect x="480" y="340" width="292" height="18" rx="5"/>
    <rect x="480" y="386" width="336" height="18" rx="5"/>
  </g>
  <rect x="116" y="418" width="236" height="52" rx="8" fill="#67c7bd"/>
  <text x="142" y="451" fill="#101312" font-family="Pretendard, sans-serif" font-size="26" font-weight="800">INSTALL</text>
  <text x="480" y="469" fill="#eef4f1" font-family="Pretendard, sans-serif" font-size="54" font-weight="900">SDK</text>
</svg>
